<?xml version="1.0" encoding="UTF-8"?>
<svg width="32" height="32" viewBox="0 0 32 32" fill="none" xmlns="http://www.w3.org/2000/svg">
  <!-- Background Circle -->
  <circle cx="16" cy="16" r="15" fill="#141414" stroke="#00ffa3" stroke-width="2"/>
  
  <!-- Solana Logo Base -->
  <path d="M8 10.5L16 6L24 10.5L16 15L8 10.5Z" fill="#00ffa3"/>
  <path d="M8 16L16 11.5L24 16L16 20.5L8 16Z" fill="#00ffa3" fill-opacity="0.8"/>
  <path d="M8 21.5L16 17L24 21.5L16 26L8 21.5Z" fill="#00ffa3" fill-opacity="0.6"/>
  
  <!-- Droplet Effect -->
  <path d="M16 26C16 26 20 23 20 19C20 15 16 17 16 17C16 17 12 15 12 19C12 23 16 26 16 26Z" fill="#00ffa3" fill-opacity="0.4"/>
  
  <!-- Shine Effect -->
  <path d="M10 11.5L14 9L18 11.5L14 14L10 11.5Z" fill="white" fill-opacity="0.2"/>
</svg> 